<svg xmlns="http://www.w3.org/2000/svg" xmlns:xlink="http://www.w3.org/1999/xlink" width="250" height="47.278" viewBox="0 0 250 47.278">
  <defs>
    <clipPath id="clip-path">
      <rect id="Rectangle_5" data-name="Rectangle 5" width="250" height="47.278" fill="#efebe7"/>
    </clipPath>
  </defs>
  <g id="Group_5" data-name="Group 5" clip-path="url(#clip-path)">
    <path id="Path_23" data-name="Path 23" d="M57.243,18.86c.032,0,.047.047.047.142s-.015.142-.047.142a1.831,1.831,0,0,0-1.187.427,3.354,3.354,0,0,0-.9,1.427L51.633,29.96c-.015.063-.1.095-.249.095s-.241-.032-.274-.095l-4.35-9.126a4.907,4.907,0,0,0-.807-1.332,1.349,1.349,0,0,0-1-.357c-.047,0-.072-.047-.072-.142s.025-.142.072-.142q.379,0,.7.011c.213.01.443.021.688.036s.521.025.821.025c.522,0,.978-.013,1.368-.036s.756-.036,1.1-.036c.032,0,.047.047.047.142s-.015.142-.047.142a1.408,1.408,0,0,0-1.081.334q-.3.331.036,1.117l3.566,7.415-.88,1.664L54.6,20.857a1.354,1.354,0,0,0,.036-1.271c-.2-.293-.669-.441-1.415-.441-.046,0-.07-.047-.07-.142s.025-.142.07-.142c.334,0,.655.011.963.036s.718.036,1.225.036c.38,0,.692-.013.938-.036s.541-.036.891-.036" transform="translate(40.382 16.969)" fill="#efebe7"/>
    <path id="Path_24" data-name="Path 24" d="M56.008,28.059a3.54,3.54,0,0,0,.118,1.045.716.716,0,0,0,.488.475,3.7,3.7,0,0,0,1.081.12c.047,0,.072.047.072.142s-.025.142-.072.142c-.348,0-.741-.008-1.176-.025s-.908-.023-1.415-.023c-.475,0-.938.009-1.389.023s-.853.025-1.2.025c-.032,0-.047-.047-.047-.142s.015-.142.047-.142a3.8,3.8,0,0,0,1.117-.12.744.744,0,0,0,.486-.475,3.182,3.182,0,0,0,.131-1.045V20.785a3.357,3.357,0,0,0-.12-1.033.745.745,0,0,0-.486-.475,3.6,3.6,0,0,0-1.128-.131c-.032,0-.047-.047-.047-.142s.015-.142.047-.142q.521,0,1.2.036t1.389.034c.507,0,.984-.011,1.427-.034s.832-.036,1.165-.036c.047,0,.072.047.072.142s-.025.142-.072.142a1.968,1.968,0,0,0-1.377.332,2.081,2.081,0,0,0-.31,1.354Z" transform="translate(47.205 16.97)" fill="#efebe7"/>
    <path id="Path_25" data-name="Path 25" d="M61.9,30.4a5.638,5.638,0,0,1-3.007-.8,5.54,5.54,0,0,1-2.008-2.128,6,6,0,0,1-.712-2.876,5.421,5.421,0,0,1,.57-2.542,5.62,5.62,0,0,1,1.522-1.843,6.83,6.83,0,0,1,2.092-1.128,7.008,7.008,0,0,1,2.234-.382,5.372,5.372,0,0,1,4.1,1.784A5.817,5.817,0,0,1,67.8,22.323a5.717,5.717,0,0,1,.393,2.069,5.57,5.57,0,0,1-.488,2.316,6.112,6.112,0,0,1-1.354,1.915,6.465,6.465,0,0,1-2.008,1.307A6.3,6.3,0,0,1,61.9,30.4m.595-.5a3.287,3.287,0,0,0,2.7-1.3,5.706,5.706,0,0,0,1.033-3.647,7.638,7.638,0,0,0-.522-2.853,5,5,0,0,0-1.508-2.092,3.762,3.762,0,0,0-2.413-.783,3.184,3.184,0,0,0-2.7,1.235,5.672,5.672,0,0,0-.94,3.5,8.081,8.081,0,0,0,.536,2.994,5.107,5.107,0,0,0,1.522,2.15,3.535,3.535,0,0,0,2.293.8" transform="translate(50.536 16.834)" fill="#efebe7"/>
    <path id="Path_26" data-name="Path 26" d="M66.86,20.809v7.154a1.835,1.835,0,0,0,.321,1.273,2.079,2.079,0,0,0,1.391.319h1.165a2.986,2.986,0,0,0,2.164-.83,4.458,4.458,0,0,0,1.187-2.187c0-.032.047-.044.142-.036s.142.027.142.059a13.146,13.146,0,0,0-.131,1.461c-.023.579-.034,1.113-.034,1.605,0,.237-.127.357-.382.357H63.461c-.032,0-.047-.047-.047-.144s.015-.141.047-.141a3.463,3.463,0,0,0,1.058-.12.72.72,0,0,0,.464-.475,3.554,3.554,0,0,0,.118-1.047V20.786a3.434,3.434,0,0,0-.118-1.035.757.757,0,0,0-.464-.475,3.189,3.189,0,0,0-1.058-.129c-.032,0-.047-.047-.047-.144s.015-.142.047-.142c.348,0,.745.011,1.187.036s.9.036,1.379.036c.492,0,.959-.013,1.4-.036s.832-.036,1.165-.036c.032,0,.048.049.048.142s-.015.144-.048.144a3.609,3.609,0,0,0-1.128.129.748.748,0,0,0-.486.488,3.466,3.466,0,0,0-.12,1.045" transform="translate(57.054 16.969)" fill="#efebe7"/>
    <path id="Path_27" data-name="Path 27" d="M73.345,28.059a3.54,3.54,0,0,0,.118,1.045.716.716,0,0,0,.488.475,3.7,3.7,0,0,0,1.081.12c.048,0,.072.047.072.142s-.025.142-.072.142c-.348,0-.741-.008-1.176-.025s-.908-.023-1.415-.023c-.475,0-.938.009-1.389.023s-.853.025-1.2.025c-.032,0-.047-.047-.047-.142s.015-.142.047-.142a3.8,3.8,0,0,0,1.117-.12.744.744,0,0,0,.486-.475,3.182,3.182,0,0,0,.131-1.045V20.785a3.357,3.357,0,0,0-.12-1.033.745.745,0,0,0-.486-.475,3.6,3.6,0,0,0-1.128-.131c-.032,0-.047-.047-.047-.142s.015-.142.047-.142q.521,0,1.2.036t1.389.034c.507,0,.984-.011,1.427-.034s.832-.036,1.165-.036c.048,0,.072.047.072.142s-.025.142-.072.142a1.968,1.968,0,0,0-1.377.332,2.081,2.081,0,0,0-.31,1.354Z" transform="translate(62.803 16.97)" fill="#efebe7"/>
    <path id="Path_28" data-name="Path 28" d="M84.559,30.245c0,.032-.04.051-.12.059a.342.342,0,0,1-.165-.011l-8.009-9.483a7.322,7.322,0,0,0-1.332-1.3,1.922,1.922,0,0,0-1.07-.369c-.032,0-.047-.046-.047-.142s.015-.142.047-.142c.222,0,.45,0,.69.011s.45.013.64.013c.16,0,.289,0,.393-.013s.241-.011.416-.011h.737a.52.52,0,0,1,.475.3,7.621,7.621,0,0,0,.69.938L84.3,27.749Zm-8.936-2.971V19.382l.45.072v7.819a3.354,3.354,0,0,0,.393,1.854,1.426,1.426,0,0,0,1.271.572c.047,0,.072.047.072.141s-.025.144-.072.144c-.285,0-.579-.008-.88-.025s-.633-.023-1-.023c-.332,0-.667.008-1,.023s-.642.025-.927.025c-.047,0-.07-.047-.07-.144s.023-.141.07-.141a1.455,1.455,0,0,0,1.3-.572,3.354,3.354,0,0,0,.393-1.854m8.936-5.68v8.651l-.475-.735V21.594a3.512,3.512,0,0,0-.38-1.877,1.431,1.431,0,0,0-1.284-.572c-.032,0-.047-.046-.047-.142s.015-.142.047-.142c.3,0,.6.011.9.036s.627.036.975.036.693-.013,1.033-.036.653-.036.94-.036c.03,0,.047.047.047.142s-.017.142-.047.142a1.488,1.488,0,0,0-1.32.572,3.427,3.427,0,0,0-.391,1.877" transform="translate(66.413 16.969)" fill="#efebe7"/>
    <path id="Path_29" data-name="Path 29" d="M83.221,20.874a2.049,2.049,0,0,0,.389,1.26,3.453,3.453,0,0,0,1.037.9c.427.255.87.507,1.328.762q.741.379,1.438.819a4.163,4.163,0,0,1,1.144,1.035,2.461,2.461,0,0,1,.437,1.5,2.813,2.813,0,0,1-.511,1.639,3.567,3.567,0,0,1-1.413,1.176,4.906,4.906,0,0,1-2.164.441,6.391,6.391,0,0,1-1.7-.226,4.807,4.807,0,0,1-1.391-.606.432.432,0,0,1-.142-.179.764.764,0,0,1-.047-.3l-.215-2.449c0-.078.046-.122.131-.131s.139.021.156.084a6.826,6.826,0,0,0,.819,1.594,4.884,4.884,0,0,0,1.261,1.282,2.723,2.723,0,0,0,1.581.5,2.273,2.273,0,0,0,.914-.192,1.663,1.663,0,0,0,.726-.6,1.938,1.938,0,0,0,.285-1.106,2.373,2.373,0,0,0-.4-1.4,3.872,3.872,0,0,0-1.058-1c-.435-.285-.881-.555-1.343-.807s-.931-.522-1.366-.809a3.918,3.918,0,0,1-1.07-1.009,2.375,2.375,0,0,1-.416-1.415,2.452,2.452,0,0,1,.534-1.6,3.3,3.3,0,0,1,1.391-.986,5.005,5.005,0,0,1,1.829-.334,6.269,6.269,0,0,1,1.32.144,5.771,5.771,0,0,1,1.25.4.927.927,0,0,1,.26.179.478.478,0,0,1,.093.249l.1,2.116c0,.063-.046.1-.131.118s-.139,0-.156-.047a3.141,3.141,0,0,0-.321-.8,4.581,4.581,0,0,0-.654-.914,3.31,3.31,0,0,0-.95-.737,2.587,2.587,0,0,0-1.212-.287,1.67,1.67,0,0,0-1.32.5,1.8,1.8,0,0,0-.437,1.237" transform="translate(73.247 16.834)" fill="#efebe7"/>
    <path id="Path_30" data-name="Path 30" d="M4.954,16.921A3.288,3.288,0,0,0,5.182,18.3a1.337,1.337,0,0,0,.957.653,9.721,9.721,0,0,0,2.188.182q.091,0,.091.182t-.091.182c-.648,0-1.353-.011-2.112-.03s-1.586-.03-2.477-.03q-1,0-1.961.03c-.638.019-1.212.03-1.717.03-.04,0-.061-.061-.061-.182s.021-.182.061-.182a6.18,6.18,0,0,0,1.6-.152.975.975,0,0,0,.7-.608,4.12,4.12,0,0,0,.167-1.337V2.969a3.985,3.985,0,0,0-.167-1.322,1.02,1.02,0,0,0-.7-.608A5.742,5.742,0,0,0,.061.872C.021.872,0,.811,0,.69S.021.507.061.507q.758,0,1.7.046T3.708.6Q4.5.6,5.638.507T7.933.416A9.214,9.214,0,0,1,11.11.933a4.944,4.944,0,0,1,2.264,1.611A4.67,4.67,0,0,1,14.255,5.4a6.064,6.064,0,0,1-.578,2.736,5.469,5.469,0,0,1-1.565,1.915,6.841,6.841,0,0,1-2.188,1.125,8.078,8.078,0,0,1-2.356.365c-.243,0-.492-.009-.745-.03a3.786,3.786,0,0,1-.714-.122c-.082-.021-.106-.095-.076-.228s.076-.188.137-.167a5.26,5.26,0,0,0,.562.091c.192.019.359.03.5.03a4.266,4.266,0,0,0,2.128-.547,4.07,4.07,0,0,0,1.581-1.687,6,6,0,0,0,.608-2.842,6.149,6.149,0,0,0-.562-2.766A4.119,4.119,0,0,0,9.423,1.541,4.36,4.36,0,0,0,7.113.933a5.527,5.527,0,0,0-1.322.122.915.915,0,0,0-.654.578,4,4,0,0,0-.182,1.4Z" transform="translate(0 0.375)" fill="#efebe7"/>
    <path id="Path_31" data-name="Path 31" d="M13.847,17a4.068,4.068,0,0,0,.167,1.337.972.972,0,0,0,.7.608,6.18,6.18,0,0,0,1.6.152c.04,0,.061.061.061.182s-.021.182-.061.182q-.761,0-1.687-.03c-.617-.019-1.292-.03-2.021-.03-.709,0-1.377.011-2.006.03s-1.195.03-1.7.03c-.04,0-.061-.061-.061-.182s.021-.182.061-.182a6.364,6.364,0,0,0,1.611-.152,1.021,1.021,0,0,0,.729-.608A3.768,3.768,0,0,0,11.416,17V2.926A3.646,3.646,0,0,0,11.233,1.6,1.069,1.069,0,0,0,10.5,1,5.914,5.914,0,0,0,8.893.829c-.04,0-.061-.061-.061-.182s.021-.182.061-.182c.507,0,1.073.015,1.7.046s1.3.046,2.006.046Q13.7.555,14.638.51T16.309.464c.04,0,.061.061.061.182s-.021.182-.061.182a5.082,5.082,0,0,0-1.581.182,1.1,1.1,0,0,0-.7.638,3.768,3.768,0,0,0-.182,1.337Z" transform="translate(7.946 0.418)" fill="#efebe7"/>
    <path id="Path_32" data-name="Path 32" d="M23.923,19.984a9.826,9.826,0,0,1-3.967-.775,8.944,8.944,0,0,1-3.04-2.143,9.752,9.752,0,0,1-1.945-3.146,10.45,10.45,0,0,1-.684-3.784,9.035,9.035,0,0,1,3.5-7.4A11.211,11.211,0,0,1,21.249.9,12.137,12.137,0,0,1,24.987.288a9.65,9.65,0,0,1,4.027.805,9.157,9.157,0,0,1,3.024,2.173,9.618,9.618,0,0,1,1.9,3.1,10.012,10.012,0,0,1,.654,3.556,9.244,9.244,0,0,1-.851,3.951,10.214,10.214,0,0,1-2.325,3.192,10.982,10.982,0,0,1-3.4,2.143,10.867,10.867,0,0,1-4.088.775m1.064-.669a6.386,6.386,0,0,0,3.48-.988,6.67,6.67,0,0,0,2.462-2.888,10.905,10.905,0,0,0,.9-4.666,12.172,12.172,0,0,0-.988-5.03,8.228,8.228,0,0,0-2.8-3.465,7.337,7.337,0,0,0-4.3-1.261A6,6,0,0,0,18.8,3.176a9.1,9.1,0,0,0-1.748,5.9,13.869,13.869,0,0,0,.562,4.027,10.17,10.17,0,0,0,1.626,3.268,7.67,7.67,0,0,0,2.523,2.173,6.757,6.757,0,0,0,3.222.775" transform="translate(12.855 0.26)" fill="#efebe7"/>
    <path id="Path_33" data-name="Path 33" d="M30.894,1.489a4.015,4.015,0,0,0-2.948,1.049A6.7,6.7,0,0,0,26.365,5.9c-.021.042-.087.061-.2.061S26,5.927,26,5.866c.04-.262.085-.638.137-1.125s.095-1.013.137-1.581.076-1.115.106-1.641.046-.961.046-1.307c0-.1.061-.152.182-.152s.182.051.182.152a.457.457,0,0,0,.3.441,2.34,2.34,0,0,0,.7.182,5.969,5.969,0,0,0,.669.046q2.613.091,6.109.091,2.126,0,3.4-.046T40.438.881a7.144,7.144,0,0,0,1.6-.137.907.907,0,0,0,.714-.623c.019-.08.085-.122.2-.122s.167.042.167.122c-.042.3-.076.729-.106,1.277s-.061,1.115-.091,1.7-.057,1.136-.076,1.641-.03.881-.03,1.125c0,.061-.057.091-.167.091s-.167-.03-.167-.091a5.38,5.38,0,0,0-1.216-3.374,4.043,4.043,0,0,0-2.979-1,6.883,6.883,0,0,0-1.6.137.956.956,0,0,0-.7.532A3.407,3.407,0,0,0,35.818,3.4V17.417a3.477,3.477,0,0,0,.2,1.337,1.085,1.085,0,0,0,.79.608,7.991,7.991,0,0,0,1.839.152c.04,0,.061.061.061.182s-.021.182-.061.182q-.821,0-1.839-.03c-.68-.019-1.425-.03-2.234-.03-.769,0-1.5.011-2.173.03s-1.3.03-1.869.03q-.091,0-.091-.182t.091-.182a8.06,8.06,0,0,0,1.809-.152,1.15,1.15,0,0,0,.836-.608,3.3,3.3,0,0,0,.213-1.337V3.343A3.176,3.176,0,0,0,33.2,2.112a.927.927,0,0,0-.729-.517,8.922,8.922,0,0,0-1.581-.106" transform="translate(23.392 0.001)" fill="#efebe7"/>
    <path id="Path_34" data-name="Path 34" d="M43.762.416a6.679,6.679,0,0,1,4,1.018,3.3,3.3,0,0,1,1.383,2.812A4.666,4.666,0,0,1,48.61,6.4a6.209,6.209,0,0,1-1.429,1.824,6.9,6.9,0,0,1-2.067,1.246A6.605,6.605,0,0,1,42.7,9.93c-.243,0-.5,0-.76-.015s-.507-.025-.729-.046v7.173a4.068,4.068,0,0,0,.167,1.337.968.968,0,0,0,.7.608,6.16,6.16,0,0,0,1.6.152q.091,0,.091.182t-.091.182q-.761,0-1.672-.03c-.608-.019-1.277-.03-2.006-.03-.69,0-1.349.011-1.976.03s-1.195.03-1.7.03q-.091,0-.091-.182t.091-.182a6.025,6.025,0,0,0,1.565-.152,1.066,1.066,0,0,0,.729-.608,3.514,3.514,0,0,0,.2-1.337V2.969a3.646,3.646,0,0,0-.182-1.322,1.061,1.061,0,0,0-.7-.608A5.574,5.574,0,0,0,36.346.872c-.04,0-.061-.061-.061-.182s.021-.182.061-.182c.505,0,1.07.015,1.687.046S39.3.6,39.993.6c.547,0,1.174-.03,1.885-.091S43.215.416,43.762.416M46.619,5.34a6.4,6.4,0,0,0-.456-2.69,2.715,2.715,0,0,0-1.231-1.337,4.469,4.469,0,0,0-2.9-.243,1,1,0,0,0-.623.593,3.624,3.624,0,0,0-.2,1.368V9.079c.283.021.593.046.927.076s.623.046.866.046a3.751,3.751,0,0,0,2.781-.866,4.267,4.267,0,0,0,.836-2.994M51.6,19.5q-.487,0-1.6-1.216a33.437,33.437,0,0,1-2.66-3.465q-1.55-2.248-3.5-5.35l2.036-.669q2.553,3.83,4.331,6.094a17.046,17.046,0,0,0,3.146,3.252,4.505,4.505,0,0,0,2.614.988q.091,0,.091.182t-.091.182H51.6Z" transform="translate(32.591 0.375)" fill="#efebe7"/>
    <path id="Path_35" data-name="Path 35" d="M53.3,17V2.926A3.646,3.646,0,0,0,53.12,1.6,1.062,1.062,0,0,0,52.406,1,5.59,5.59,0,0,0,50.841.829q-.091,0-.091-.182t.091-.182c.505,0,1.07.015,1.687.046S53.8.555,54.488.555q1.094,0,2.021-.046T58.166.464c.04,0,.061.061.061.182s-.021.182-.061.182a5.082,5.082,0,0,0-1.581.182,1.1,1.1,0,0,0-.7.638A3.768,3.768,0,0,0,55.7,2.987V17a4.076,4.076,0,0,0,.167,1.337.972.972,0,0,0,.7.608,6.18,6.18,0,0,0,1.6.152q.091,0,.091.182t-.091.182c-.507,0-1.064-.011-1.672-.03s-1.277-.03-2.006-.03q-1.034,0-1.991.03c-.638.019-1.21.03-1.717.03-.04,0-.061-.061-.061-.182s.021-.182.061-.182a6.364,6.364,0,0,0,1.611-.152,1.021,1.021,0,0,0,.73-.608A3.775,3.775,0,0,0,53.3,17m.821-5.988,7.812-7.872q1.154-1.154.942-1.733T61.114.829q-.091,0-.091-.182t.091-.182q.761,0,1.55.046t2.1.046q1.277,0,2.021-.046T68.2.464q.091,0,.091.182T68.2.829a7.454,7.454,0,0,0-2.69.593,8.27,8.27,0,0,0-2.812,1.9l-7.812,7.72Zm6.9,4.043L56.4,9.127l1.824-1.581,4.5,5.866q1.305,1.733,2.219,2.827a20.562,20.562,0,0,0,1.535,1.687,5.582,5.582,0,0,0,1.094.851,2.184,2.184,0,0,0,.912.289c.294.021.623.03.988.03q.091,0,.091.182t-.091.182h-3.4c-.446,0-.79,0-1.033.015a1.051,1.051,0,0,1-.608-.137,2.87,2.87,0,0,1-.608-.593c-.243-.293-.578-.735-1-1.322s-1.024-1.379-1.793-2.371" transform="translate(45.632 0.418)" fill="#efebe7"/>
    <path id="Path_36" data-name="Path 36" d="M77.652,3.959a3.5,3.5,0,0,0-.684-2.325A2.508,2.508,0,0,0,74.947.829q-.091,0-.091-.182t.091-.182q.7,0,1.459.046t1.641.046q.758,0,1.5-.046T80.935.464c.04,0,.061.061.061.182s-.021.182-.061.182a2.185,2.185,0,0,0-1.839.805,3.737,3.737,0,0,0-.623,2.325v8.6a7.955,7.955,0,0,1-.912,3.921,6.151,6.151,0,0,1-2.553,2.508,8.089,8.089,0,0,1-3.83.866,8.593,8.593,0,0,1-3.951-.866,6.286,6.286,0,0,1-2.644-2.477,7.444,7.444,0,0,1-.942-3.83V2.926A3.646,3.646,0,0,0,63.458,1.6,1.067,1.067,0,0,0,62.744,1,5.6,5.6,0,0,0,61.178.829q-.091,0-.091-.182t.091-.182c.505,0,1.064.015,1.672.046s1.267.046,1.976.046c.729,0,1.4-.015,2.021-.046S68.006.464,68.473.464q.091,0,.091.182t-.091.182a5.1,5.1,0,0,0-1.565.182,1.05,1.05,0,0,0-.7.638,4.075,4.075,0,0,0-.167,1.337v8.632q0,3.647,1.581,5.456A5.5,5.5,0,0,0,72,18.884a5.317,5.317,0,0,0,4.164-1.657,6.693,6.693,0,0,0,1.489-4.635Z" transform="translate(54.961 0.418)" fill="#efebe7"/>
    <path id="Path_37" data-name="Path 37" d="M77.305,2.956V16.877a3.316,3.316,0,0,0,.167,1.2.92.92,0,0,0,.638.547,5.428,5.428,0,0,0,1.413.137h2.584a4.549,4.549,0,0,0,3.222-1.155,5.6,5.6,0,0,0,1.641-3.07c0-.061.055-.085.167-.076s.167.046.167.106q-.091.881-.182,2.128t-.091,2.31a.4.4,0,0,1-.456.456H72.412c-.04,0-.061-.061-.061-.182s.021-.182.061-.182a6.18,6.18,0,0,0,1.6-.152,1.018,1.018,0,0,0,.714-.608A3.767,3.767,0,0,0,74.9,17V2.926A3.646,3.646,0,0,0,74.722,1.6,1.067,1.067,0,0,0,74.008,1a5.742,5.742,0,0,0-1.6-.167c-.04,0-.061-.061-.061-.182s.021-.182.061-.182q.729,0,1.687.046T76.09.555c.729,0,1.4-.015,2.021-.046s1.17-.046,1.657-.046c.04,0,.061.061.061.182s-.021.182-.061.182A5.565,5.565,0,0,0,78.187,1a1.054,1.054,0,0,0-.7.623,3.775,3.775,0,0,0-.182,1.337" transform="translate(65.095 0.418)" fill="#efebe7"/>
    <path id="Path_38" data-name="Path 38" d="M92.417.288a16.766,16.766,0,0,1,2.842.258,8.857,8.857,0,0,1,2.416.714,1.247,1.247,0,0,1,.334.274.961.961,0,0,1,.122.456l.334,3.647c0,.061-.051.1-.152.122s-.163-.009-.182-.091a6.347,6.347,0,0,0-2.6-3.541,7.9,7.9,0,0,0-4.3-1.14,7.136,7.136,0,0,0-3.875,1.018,6.6,6.6,0,0,0-2.492,2.857A9.994,9.994,0,0,0,84,9.163a12.685,12.685,0,0,0,.623,4.012,10.578,10.578,0,0,0,1.748,3.3,8.533,8.533,0,0,0,2.6,2.219,6.508,6.508,0,0,0,3.176.805,5.956,5.956,0,0,0,3.678-1.216A8.266,8.266,0,0,0,98.4,14.513c.019-.082.085-.112.2-.091s.167.061.167.122l-.426,3.647a1.366,1.366,0,0,1-.137.471.886.886,0,0,1-.35.228,15.2,15.2,0,0,1-2.888.836,16,16,0,0,1-2.827.258,12.619,12.619,0,0,1-5-.9,9.424,9.424,0,0,1-3.389-2.371,9.542,9.542,0,0,1-1.915-3.237,10.641,10.641,0,0,1-.608-3.5A8.533,8.533,0,0,1,82.143,6a9.447,9.447,0,0,1,2.492-3.04A11.848,11.848,0,0,1,88.222.987a12.671,12.671,0,0,1,4.195-.7" transform="translate(73.084 0.26)" fill="#efebe7"/>
    <path id="Path_39" data-name="Path 39" d="M104.831,19.461H91.882q-.091,0-.091-.182t.091-.182a6.015,6.015,0,0,0,1.565-.152,1.014,1.014,0,0,0,.714-.608A3.768,3.768,0,0,0,94.344,17V2.926A3.646,3.646,0,0,0,94.162,1.6,1.063,1.063,0,0,0,93.448,1,5.59,5.59,0,0,0,91.882.829q-.091,0-.091-.182t.091-.182h12.4c.2,0,.3.091.3.274l.061,3.83c0,.061-.055.1-.167.106s-.177-.015-.2-.076A3.93,3.93,0,0,0,103.1,2.06a3.693,3.693,0,0,0-2.553-.866h-1.55a4.966,4.966,0,0,0-1.4.152,1.02,1.02,0,0,0-.669.562,2.876,2.876,0,0,0-.182,1.14v13.83a3.1,3.1,0,0,0,.167,1.14,1.008,1.008,0,0,0,.623.578,3.832,3.832,0,0,0,1.277.167h2.006a4.09,4.09,0,0,0,2.857-1.018,5.375,5.375,0,0,0,1.55-2.9c0-.061.061-.08.182-.061s.182.061.182.122q-.122.821-.213,1.976t-.091,2.128a.4.4,0,0,1-.456.456m-1.7-6.991a2.38,2.38,0,0,0-.745-1.93A3.7,3.7,0,0,0,100,9.917H95.59v-.7h4.5a3.894,3.894,0,0,0,2.28-.532,1.911,1.911,0,0,0,.729-1.657c0-.04.055-.061.167-.061s.167.021.167.061q0,.943-.015,1.459c-.011.344-.015.71-.015,1.094q0,.7.046,1.4t.046,1.489c0,.04-.061.061-.182.061s-.182-.021-.182-.061" transform="translate(82.585 0.418)" fill="#efebe7"/>
    <path id="Path_40" data-name="Path 40" d="M118.436,19.856c0,.042-.046.066-.137.076a.357.357,0,0,1-.2-.015L103.786,2.956a7.74,7.74,0,0,0-1.839-1.687,3.1,3.1,0,0,0-1.535-.441c-.042,0-.061-.061-.061-.182s.019-.182.061-.182c.384,0,.769.011,1.155.03s.739.03,1.064.03c.486,0,.931-.009,1.337-.03s.709-.03.912-.03a.611.611,0,0,1,.578.35,9.557,9.557,0,0,0,.881,1.231L118.193,16.33ZM103.056,16V1.163l.79.061V16a3.855,3.855,0,0,0,.578,2.34,2.139,2.139,0,0,0,1.824.76c.04,0,.061.061.061.182s-.021.182-.061.182q-.638,0-1.292-.03c-.437-.019-.927-.03-1.474-.03-.528,0-1.045.011-1.55.03s-.984.03-1.429.03c-.042,0-.061-.061-.061-.182s.019-.182.061-.182a2.344,2.344,0,0,0,1.945-.76,3.717,3.717,0,0,0,.608-2.34m15.38-12.037v15.9l-.76-.942V3.959a4.026,4.026,0,0,0-.562-2.356,2.085,2.085,0,0,0-1.809-.775c-.042,0-.061-.061-.061-.182s.019-.182.061-.182q.638,0,1.307.046c.445.03.933.046,1.459.046.505,0,1-.015,1.489-.046s.942-.046,1.368-.046c.04,0,.061.061.061.182s-.021.182-.061.182a2.246,2.246,0,0,0-1.885.775,3.78,3.78,0,0,0-.608,2.356" transform="translate(90.287 0.418)" fill="#efebe7"/>
    <path id="Path_41" data-name="Path 41" d="M117,1.489a4.015,4.015,0,0,0-2.948,1.049A6.7,6.7,0,0,0,112.476,5.9c-.021.042-.087.061-.2.061s-.167-.03-.167-.091c.04-.262.085-.638.137-1.125s.095-1.013.137-1.581.076-1.115.106-1.641.046-.961.046-1.307c0-.1.061-.152.182-.152s.182.051.182.152a.457.457,0,0,0,.3.441,2.34,2.34,0,0,0,.7.182,5.969,5.969,0,0,0,.669.046q2.613.091,6.109.091,2.126,0,3.4-.046t2.462-.046a7.145,7.145,0,0,0,1.6-.137.907.907,0,0,0,.714-.623c.019-.08.085-.122.2-.122s.167.042.167.122c-.042.3-.076.729-.106,1.277s-.061,1.115-.091,1.7-.057,1.136-.076,1.641-.03.881-.03,1.125c0,.061-.057.091-.167.091s-.167-.03-.167-.091a5.38,5.38,0,0,0-1.216-3.374,4.043,4.043,0,0,0-2.979-1,6.882,6.882,0,0,0-1.6.137.956.956,0,0,0-.7.532,3.407,3.407,0,0,0-.167,1.246V17.417a3.477,3.477,0,0,0,.2,1.337,1.085,1.085,0,0,0,.79.608,7.991,7.991,0,0,0,1.839.152c.04,0,.061.061.061.182s-.021.182-.061.182q-.821,0-1.839-.03c-.68-.019-1.425-.03-2.234-.03-.769,0-1.5.011-2.173.03s-1.3.03-1.869.03q-.091,0-.091-.182t.091-.182a8.061,8.061,0,0,0,1.809-.152,1.15,1.15,0,0,0,.836-.608,3.3,3.3,0,0,0,.213-1.337V3.343a3.176,3.176,0,0,0-.182-1.231.927.927,0,0,0-.729-.517A8.923,8.923,0,0,0,117,1.489" transform="translate(100.867 0.001)" fill="#efebe7"/>
    <path id="Path_42" data-name="Path 42" d="M130.265,11.194l-5.2-7.781a8.678,8.678,0,0,0-1.733-2.036,2.584,2.584,0,0,0-1.581-.547q-.091,0-.091-.182t.091-.182c.325,0,.669.015,1.033.046s.709.046,1.033.046q.852,0,1.672-.015c.547-.009,1.068-.025,1.565-.046s.927-.03,1.292-.03c.04,0,.061.061.061.182s-.021.182-.061.182c-.729,0-1.182.142-1.353.426s-.087.669.258,1.155L132.18,9.8Zm-.365-1.155,2.432-.274V17a4.068,4.068,0,0,0,.167,1.337.965.965,0,0,0,.684.608,5.98,5.98,0,0,0,1.581.152q.091,0,.091.182t-.091.182q-.73,0-1.657-.03c-.617-.019-1.292-.03-2.021-.03-.69,0-1.353.011-1.991.03s-1.2.03-1.687.03q-.091,0-.091-.182t.091-.182a6.181,6.181,0,0,0,1.6-.152,1.014,1.014,0,0,0,.714-.608A3.768,3.768,0,0,0,129.9,17Zm1.125.76,4.316-6.778a3.243,3.243,0,0,0,.669-2.356Q135.767.83,134.4.829q-.091,0-.091-.182T134.4.464q.88,0,1.657.046t2.052.046q.758,0,1.231-.046t1.14-.046c.04,0,.061.061.061.182s-.021.182-.061.182a3.2,3.2,0,0,0-1.459.41,6.269,6.269,0,0,0-1.535,1.155A9.636,9.636,0,0,0,136.1,4.172l-4.5,7.113Z" transform="translate(109.461 0.418)" fill="#efebe7"/>
  </g>
</svg>
