<svg xmlns="http://www.w3.org/2000/svg" xmlns:xlink="http://www.w3.org/1999/xlink" width="38.004" height="47.278" viewBox="0 0 38.004 47.278">
  <defs>
    <clipPath id="clip-path">
      <rect id="Rectangle_4" data-name="Rectangle 4" width="38.004" height="47.278" fill="#efebe7"/>
    </clipPath>
  </defs>
  <g id="Group_4" data-name="Group 4" transform="translate(0 0)" style="isolation: isolate">
    <g id="Group_3" data-name="Group 3" transform="translate(0 0)" clip-path="url(#clip-path)">
      <path id="Path_22" data-name="Path 22" d="M37.851,46.665c-.642,0-1.227,0-1.757-.028a4.577,4.577,0,0,1-1.674-.4,8.385,8.385,0,0,1-1.994-1.353,32.368,32.368,0,0,1-2.789-2.845c-1.116-1.255-2.469-2.873-4.072-4.9l-7.35-9.233,8.73-8.493A11.256,11.256,0,0,1,31.393,16.6a14.056,14.056,0,0,1,4.058-.711c.1,0,.153-.112.153-.307s-.056-.307-.153-.307c-.683,0-1.395.014-2.134.07s-1.729.084-3,.084q-2.05,0-3.305-.084c-.837-.056-1.66-.07-2.482-.07-.07,0-.1.1-.1.307s.028.307.1.307c1.813,0,2.789.209,2.943.642s-.418,1.283-1.715,2.58L14.49,30.333l-1.227,1.227c-.53-.014-1.032-.028-1.478-.042a14.224,14.224,0,0,1-2.162-.265,2.543,2.543,0,0,1-1.813-1.1,4.924,4.924,0,0,1-.446-2.329V4.407A6.391,6.391,0,0,1,7.754,1.8,1.774,1.774,0,0,1,9.135.851,18.094,18.094,0,0,1,11.98.669,8.289,8.289,0,0,1,16.08,1.7a7.629,7.629,0,0,1,2.943,2.971,9.482,9.482,0,0,1,1.1,4.756A8.747,8.747,0,0,1,18.9,14.267a8.1,8.1,0,0,1-.767,1.018c-.209.237-.432.446-.655.655a7.481,7.481,0,0,1-1.813,1.171,7.225,7.225,0,0,1-.907.363,9.868,9.868,0,0,1-3.068.558h-.265c-.279,0-.572-.014-.907-.042s-.642-.084-.948-.153c-.1-.042-.167.056-.223.279s-.014.349.126.377a5.528,5.528,0,0,0,1.2.209c.363.028.711.056,1.088.056h.223a11.566,11.566,0,0,0,2.566-.279,12.419,12.419,0,0,0,1.381-.335,11.931,11.931,0,0,0,3.654-1.869,9.437,9.437,0,0,0,2.692-3.208A9.859,9.859,0,0,0,23.3,8.41,7.9,7.9,0,0,0,21.938,3.6,7.846,7.846,0,0,0,18.284.879,14.308,14.308,0,0,0,13.151,0c-1.367,0-2.678.056-3.933.153S6.876.307,5.983.307C4.9.307,3.835.293,2.831.237S.92.153.1.153c-.07,0-.1.112-.1.307S.028.781.1.781a10.886,10.886,0,0,1,2.915.279A1.9,1.9,0,0,1,4.323,2.078a5.719,5.719,0,0,1,.335,2.231V28.032a5.845,5.845,0,0,1-.335,2.245A1.843,1.843,0,0,1,3.012,31.31,12.5,12.5,0,0,1,.1,31.561c-.07,0-.1.1-.1.307s.028.307.1.307c.823,0,1.743-.014,2.761-.056s2.078-.042,3.18-.042c1.506,0,2.887.014,4.17.042l1.576.042h.865c.377.014.753.014,1.116.014h.07l.655-.642,1.827-1.785,8.117,10.111c1.269,1.562,2.231,2.845,2.915,3.807s1.2,1.715,1.548,2.231a4.76,4.76,0,0,0,.837,1.046,1.317,1.317,0,0,0,.851.307c.335.028.851.028,1.534.028h5.732c.112,0,.153-.1.153-.307s-.042-.307-.153-.307" transform="translate(0 0)" fill="#efebe7"/>
    </g>
  </g>
</svg>
